<svg xmlns="http://www.w3.org/2000/svg" viewBox="0 0 512 512" role="img" aria-label="Frank Guo">
  <rect width="512" height="512" rx="96" fill="#050505" />
  <g transform="translate(67.228197 118.298388) scale(1.229802)">
    <path d="M 125.315 6.008 C 98.934 9.865, 73.911 27.513, 61.597 50.948 C 59.444 55.045, 49.944 81.713, 39.043 114.263 C 20.995 168.154, 8.959 203.640, 5.630 212.773 L 4.073 217.046 21.730 216.773 L 39.388 216.500 53.571 174 L 67.753 131.500 104.923 131 L 142.094 130.500 147.539 114 C 150.534 104.925, 152.988 97.388, 152.992 97.250 C 152.997 97.112, 136.575 97, 116.500 97 C 96.425 97, 80 96.641, 80 96.203 C 80 94.380, 87.877 72.152, 89.988 68.019 C 95.717 56.801, 111.633 45.458, 125.885 42.437 L 132.500 41.035 210.250 41.017 C 253.012 41.008, 288 40.650, 288 40.223 C 288 39.099, 285.266 35.260, 280.175 29.232 C 271.033 18.407, 255.954 9.394, 242.185 6.525 L 234.869 5 182.685 5.125 C 153.983 5.193, 128.167 5.591, 125.315 6.008 M 180 113.187 C 176.975 122.089, 174.350 129.739, 174.167 130.187 C 173.983 130.634, 192.326 131, 214.928 131 L 256.022 131 252.121 138.750 C 238.195 166.410, 213.482 184.443, 184.636 187.994 C 168.281 190.007, 149.604 186.383, 135.326 178.427 C 131.931 176.535, 125.568 171.615, 121.187 167.494 L 113.221 160 101.360 160.005 L 89.500 160.010 86.171 169.560 L 82.842 179.110 84.606 181.802 C 88.067 187.084, 100.944 198.834, 109.153 204.200 C 119.798 211.159, 131.831 216.536, 143.946 219.747 C 158.000 223.470, 174.820 224.360, 188.500 223.196 L 199.741 220.655 C 224.598 215.036, 244.531 203.776, 261.651 185.685 C 275.965 170.558, 287.569 150.546, 294.990 128.186 C 298.721 116.946, 302 103.313, 302 99.042 L 302 97 243.750 97 L 185.499 97 180 113.187" fill="#FFFFFF" fill-rule="evenodd" />
  </g>
</svg>
